<svg width="78" height="78" viewBox="0 0 78 78" fill="none" xmlns="http://www.w3.org/2000/svg">
<circle cx="39" cy="39" r="39" fill="url(#paint0_linear_201_3)"/>
<mask id="mask0_201_3" style="mask-type:alpha" maskUnits="userSpaceOnUse" x="18" y="15" width="42" height="48">
<path d="M43.7926 37.515C44.0036 36.6817 43.9945 35.8078 43.7663 34.979C43.5381 34.1501 43.0985 33.3948 42.4906 32.7869C41.8828 32.1791 41.1274 31.7395 40.2986 31.5113C39.4698 31.283 38.5959 31.274 37.7626 31.485C36.0301 31.9125 34.6126 33.33 34.1851 35.0625C33.974 35.8959 33.9831 36.7698 34.2113 37.5986C34.4395 38.4274 34.8791 39.1827 35.487 39.7906C36.0949 40.3985 36.8502 40.838 37.679 41.0663C38.5078 41.2945 39.3817 41.3035 40.2151 41.0925C41.9701 40.665 43.3876 39.2475 43.7926 37.515Z" stroke="black" stroke-width="1.5" stroke-linecap="round" stroke-linejoin="round"/>
<path d="M52.5225 50.6775C54.4992 48.8363 56.0749 46.6072 57.1511 44.1295C58.2273 41.6518 58.781 38.9788 58.7775 36.2775C58.7775 33.6803 58.266 31.1085 57.2721 28.709C56.2781 26.3095 54.8214 24.1292 52.9848 22.2927C51.1483 20.4562 48.9681 18.9994 46.5686 18.0055C44.169 17.0116 41.5973 16.5 39 16.5C36.4028 16.5 33.831 17.0116 31.4315 18.0055C29.032 18.9994 26.8517 20.4562 25.0152 22.2927C23.1787 24.1292 21.7219 26.3095 20.728 28.709C19.7341 31.1085 19.2225 33.6803 19.2225 36.2775C19.2225 41.9925 21.6525 47.145 25.545 50.745" stroke="black" stroke-width="1.5" stroke-linecap="round" stroke-linejoin="round"/>
<path d="M30.0001 44.7375C27.9301 42.5325 26.6476 39.5625 26.6476 36.2775C26.6476 29.46 32.1826 23.925 39.0001 23.925C45.8176 23.925 51.3526 29.46 51.3526 36.2775C51.3526 39.5625 50.0701 42.51 48.0001 44.7375M35.1751 49.485L31.9351 53.5125C29.3701 56.73 31.6426 61.4775 35.7601 61.4775H42.2176C46.3351 61.4775 48.6301 56.7075 46.0426 53.5125L42.8026 49.485C40.8676 47.0325 37.1326 47.0325 35.1751 49.485Z" stroke="black" stroke-width="1.5" stroke-linecap="round" stroke-linejoin="round"/>
</mask>
<g mask="url(#mask0_201_3)">
<rect x="15" y="14" width="48" height="52" fill="white"/>
</g>
<defs>
<linearGradient id="paint0_linear_201_3" x1="39" y1="0" x2="39" y2="78" gradientUnits="userSpaceOnUse">
<stop stop-color="#00F0FF"/>
<stop offset="1" stop-color="#00A3FF"/>
</linearGradient>
</defs>
</svg>
