<svg width="83" height="82" viewBox="0 0 83 82" fill="none" xmlns="http://www.w3.org/2000/svg">
<circle cx="41.5644" cy="40.7552" r="40.7088" fill="url(#paint0_linear_204_3)"/>
<mask id="mask0_204_3" style="mask-type:alpha" maskUnits="userSpaceOnUse" x="17" y="16" width="48" height="48">
<path d="M54.2294 39.8505C54.2294 38.6509 54.7059 37.5004 55.5542 36.6521C56.4025 35.8039 57.553 35.3273 58.7526 35.3273C59.9522 35.3273 61.1027 35.8039 61.951 36.6521C62.7992 37.5004 63.2758 38.6509 63.2758 39.8505C63.2758 41.0501 62.7992 42.2006 61.951 43.0489C61.1027 43.8972 59.9522 44.3737 58.7526 44.3737C57.553 44.3737 56.4025 43.8972 55.5542 43.0489C54.7059 42.2006 54.2294 41.0501 54.2294 39.8505ZM54.2294 39.8505H27.0902M27.0902 39.8505C27.0902 41.0501 26.6137 42.2006 25.7654 43.0489C24.9171 43.8972 23.7666 44.3737 22.567 44.3737C21.3674 44.3737 20.2169 43.8972 19.3686 43.0489C18.5204 42.2006 18.0438 41.0501 18.0438 39.8505C18.0438 38.6509 18.5204 37.5004 19.3686 36.6521C20.2169 35.8039 21.3674 35.3273 22.567 35.3273C23.7666 35.3273 24.9171 35.8039 25.7654 36.6521C26.6137 37.5004 27.0902 38.6509 27.0902 39.8505ZM58.7526 26.2809C59.9522 26.2809 61.1027 25.8044 61.951 24.9561C62.7992 24.1079 63.2758 22.9574 63.2758 21.7577C63.2758 20.5581 62.7992 19.4076 61.951 18.5593C61.1027 17.7111 59.9522 17.2345 58.7526 17.2345C57.553 17.2345 56.4025 17.7111 55.5542 18.5593C54.7059 19.4076 54.2294 20.5581 54.2294 21.7577C54.2294 22.9574 54.7059 24.1079 55.5542 24.9561C56.4025 25.8044 57.553 26.2809 58.7526 26.2809ZM58.7526 62.4665C59.9522 62.4665 61.1027 61.9899 61.951 61.1417C62.7992 60.2934 63.2758 59.1429 63.2758 57.9433C63.2758 56.7437 62.7992 55.5932 61.951 54.7449C61.1027 53.8967 59.9522 53.4201 58.7526 53.4201C57.553 53.4201 56.4025 53.8967 55.5542 54.7449C54.7059 55.5932 54.2294 56.7437 54.2294 57.9433C54.2294 59.1429 54.7059 60.2934 55.5542 61.1417C56.4025 61.9899 57.553 62.4665 58.7526 62.4665Z" stroke="black" stroke-width="1.5" stroke-linecap="round" stroke-linejoin="round"/>
<path d="M54.2294 21.7577H45.183C40.6598 21.7577 38.3982 24.0193 38.3982 28.5425V51.1585C38.3982 55.6817 40.6598 57.9433 45.183 57.9433H54.2294" stroke="black" stroke-width="1.5" stroke-linecap="round" stroke-linejoin="round"/>
</mask>
<g mask="url(#mask0_204_3)">
<rect x="7" y="10" width="70" height="57" fill="white"/>
</g>
<defs>
<linearGradient id="paint0_linear_204_3" x1="41.5644" y1="0.0463905" x2="41.5644" y2="81.4639" gradientUnits="userSpaceOnUse">
<stop stop-color="#FFE600"/>
<stop offset="1" stop-color="#FFB800"/>
</linearGradient>
</defs>
</svg>
