<svg width="774" height="274" viewBox="0 0 774 274" fill="none" xmlns="http://www.w3.org/2000/svg">
<g filter="url(#filter0_d_32_140)">
<path d="M40.592 120L58 37.568H119.952L116.24 55.488H78.352L75.28 69.696H108.304L104.464 87.872H71.44L64.656 120H40.592ZM109.092 120L126.5 37.568H150.564L133.156 120H109.092ZM144.842 120L162.25 37.568H182.73L204.618 81.216L213.834 37.568H237.898L220.49 120H199.882L178.122 76.48L168.906 120H144.842ZM232.092 120L249.5 37.568H286.364C292.764 37.568 298.396 38.6347 303.26 40.768C308.209 42.9013 312.049 46.1867 314.78 50.624C317.511 55.0613 318.876 60.6933 318.876 67.52C318.876 69.312 318.748 71.1893 318.492 73.152C318.321 75.1147 318.023 77.1627 317.596 79.296C315.719 88.768 312.817 96.4907 308.892 102.464C304.967 108.437 299.804 112.875 293.404 115.776C287.089 118.592 279.239 120 269.852 120H232.092ZM259.996 101.568H269.724C273.735 101.568 277.233 101.013 280.22 99.904C283.207 98.7093 285.767 96.5333 287.9 93.376C290.033 90.1333 291.74 85.44 293.02 79.296C293.447 77.0773 293.788 75.0293 294.044 73.152C294.3 71.2747 294.428 69.568 294.428 68.032C294.428 63.424 293.233 60.2667 290.844 58.56C288.455 56.8533 284.657 56 279.452 56H269.724L259.996 101.568Z" fill="#EADD46"/>
<path d="M371.353 120L377.753 89.792L359.065 37.568H383.385L393.497 68.672L416.665 37.568H442.521L401.817 89.792L395.417 120H371.353ZM462.257 121.28C451.676 121.28 443.27 118.976 437.041 114.368C430.812 109.675 427.697 102.251 427.697 92.096C427.697 88.256 428.209 83.904 429.233 79.04C431.452 68.8 434.737 60.5653 439.089 54.336C443.441 48.0213 449.03 43.456 455.857 40.64C462.769 37.7387 470.961 36.288 480.433 36.288C491.356 36.288 499.846 38.6773 505.905 43.456C511.964 48.1493 514.993 55.5307 514.993 65.6C514.993 69.5253 514.481 74.0053 513.457 79.04C510.3 93.888 504.54 104.64 496.177 111.296C487.9 117.952 476.593 121.28 462.257 121.28ZM466.609 100.8C472.753 100.8 477.574 99.0933 481.073 95.68C484.657 92.1813 487.26 86.6347 488.881 79.04C489.308 76.992 489.606 75.1147 489.777 73.408C490.033 71.616 490.161 70.0373 490.161 68.672C490.161 64.4053 489.052 61.376 486.833 59.584C484.7 57.7067 481.116 56.768 476.081 56.768C469.937 56.768 465.116 58.4747 461.617 61.888C458.204 65.216 455.601 70.9333 453.809 79.04C453.382 81.088 453.041 82.9653 452.785 84.672C452.529 86.3787 452.401 87.9573 452.401 89.408C452.401 93.504 453.51 96.448 455.729 98.24C458.033 99.9467 461.66 100.8 466.609 100.8ZM551.858 121.28C544.861 121.28 538.93 120.128 534.066 117.824C529.202 115.435 525.49 112.235 522.93 108.224C520.455 104.128 519.218 99.52 519.218 94.4C519.218 92.1813 519.474 89.8773 519.986 87.488L530.61 37.568H554.674L544.434 85.696C543.922 88.0853 543.666 90.176 543.666 91.968C543.666 95.1253 544.647 97.3867 546.61 98.752C548.573 100.117 551.773 100.8 556.21 100.8C561.671 100.8 565.767 99.648 568.498 97.344C571.229 95.04 573.149 91.1573 574.258 85.696L584.498 37.568H608.562L597.81 88.256C595.421 99.8613 590.471 108.267 582.962 113.472C575.453 118.677 565.085 121.28 551.858 121.28ZM602.092 120L619.5 37.568H662.38C670.231 37.568 676.204 39.5733 680.3 43.584C684.396 47.5093 686.444 52.7573 686.444 59.328C686.444 61.632 686.188 64.1493 685.676 66.88C684.481 72.4267 682.049 77.3333 678.38 81.6C674.711 85.7813 670.316 88.9813 665.196 91.2C666.049 91.968 666.689 92.9067 667.116 94.016C667.543 95.04 667.969 96.4907 668.396 98.368L673.388 120H648.3L643.692 100.16C643.351 98.624 642.753 97.5573 641.9 96.96C641.047 96.2773 639.724 95.936 637.932 95.936H631.148L626.156 120H602.092ZM635.116 77.504H647.788C655.127 77.504 659.564 73.9627 661.1 66.88C661.271 66.112 661.399 65.3867 661.484 64.704C661.569 64.0213 661.612 63.3813 661.612 62.784C661.612 60.5653 660.972 58.9013 659.692 57.792C658.412 56.5973 656.236 56 653.164 56H639.724L635.116 77.504ZM82.576 229.28C75.0667 229.28 68.496 228.085 62.864 225.696C57.3173 223.307 53.008 219.808 49.936 215.2C46.864 210.507 45.328 204.789 45.328 198.048C45.328 194.72 45.712 191.221 46.48 187.552C49.4667 173.728 55.4827 163.061 64.528 155.552C73.5733 148.043 86.2027 144.288 102.416 144.288C107.536 144.288 112.101 144.587 116.112 145.184C120.123 145.781 123.835 146.677 127.248 147.872L122.768 168.48C119.355 167.029 115.685 166.048 111.76 165.536C107.92 165.024 103.909 164.768 99.728 164.768C92.3893 164.768 86.2027 166.56 81.168 170.144C76.1333 173.728 72.7627 179.531 71.056 187.552C70.288 190.88 69.904 193.781 69.904 196.256C69.904 200.608 71.184 203.808 73.744 205.856C76.3893 207.819 80.784 208.8 86.928 208.8C89.1467 208.8 91.2373 208.672 93.2 208.416C95.248 208.075 97.2107 207.648 99.088 207.136L101.648 195.104H85.264L88.464 180.256H124.944L116.112 221.728C112.528 223.691 107.92 225.44 102.288 226.976C96.7413 228.512 90.1707 229.28 82.576 229.28ZM123.967 228L141.375 145.568H184.255C192.106 145.568 198.079 147.573 202.175 151.584C206.271 155.509 208.319 160.757 208.319 167.328C208.319 169.632 208.063 172.149 207.551 174.88C206.356 180.427 203.924 185.333 200.255 189.6C196.586 193.781 192.191 196.981 187.071 199.2C187.924 199.968 188.564 200.907 188.991 202.016C189.418 203.04 189.844 204.491 190.271 206.368L195.263 228H170.175L165.567 208.16C165.226 206.624 164.628 205.557 163.775 204.96C162.922 204.277 161.599 203.936 159.807 203.936H153.023L148.031 228H123.967ZM156.991 185.504H169.663C177.002 185.504 181.439 181.963 182.975 174.88C183.146 174.112 183.274 173.387 183.359 172.704C183.444 172.021 183.487 171.381 183.487 170.784C183.487 168.565 182.847 166.901 181.567 165.792C180.287 164.597 178.111 164 175.039 164H161.599L156.991 185.504ZM205.342 228L222.75 145.568H285.214L281.374 164H242.974L240.03 177.44H273.694L269.726 196.128H236.062L233.246 209.568H271.646L267.806 228H205.342ZM272.904 228L321.928 145.568H347.4L361.608 228H336.52L333.576 210.464H308.488L297.992 228H272.904ZM315.272 193.184H333.704L329.608 168.992L315.272 193.184ZM377.89 228L391.586 163.488H368.418L372.13 145.568H442.53L438.818 163.488H415.65L401.954 228H377.89ZM431.592 228L449 145.568H469.48L491.368 189.216L500.584 145.568H524.648L507.24 228H486.632L464.872 184.48L455.656 228H431.592ZM518.842 228L536.25 145.568H598.714L594.874 164H556.474L553.53 177.44H587.194L583.226 196.128H549.562L546.746 209.568H585.146L581.306 228H518.842ZM615.716 229.28C610.169 229.28 605.007 228.853 600.228 228C595.449 227.061 591.524 225.781 588.452 224.16L592.676 204.32C596.175 206.112 600.143 207.563 604.58 208.672C609.017 209.781 613.284 210.336 617.38 210.336C621.647 210.336 624.932 209.995 627.236 209.312C629.54 208.544 630.991 206.88 631.588 204.32C631.673 203.979 631.716 203.552 631.716 203.04C631.716 200.907 630.393 199.328 627.748 198.304C625.103 197.28 621.177 195.872 615.972 194.08C610.169 192.032 605.775 189.557 602.788 186.656C599.801 183.669 598.308 179.829 598.308 175.136C598.308 174.197 598.351 173.259 598.436 172.32C598.521 171.296 598.692 170.229 598.948 169.12C600.655 161.013 604.665 154.869 610.98 150.688C617.38 146.421 626.596 144.288 638.628 144.288C643.151 144.288 647.716 144.672 652.324 145.44C657.017 146.208 660.729 147.061 663.46 148L659.236 167.968C655.567 166.347 651.983 165.195 648.484 164.512C644.985 163.829 641.615 163.488 638.372 163.488C634.617 163.488 631.332 163.787 628.516 164.384C625.785 164.981 624.121 166.517 623.524 168.992C623.439 169.248 623.396 169.632 623.396 170.144C623.396 171.765 624.463 173.003 626.596 173.856C628.729 174.709 632.271 175.904 637.22 177.44C644.644 179.659 649.807 182.389 652.708 185.632C655.609 188.875 657.06 192.715 657.06 197.152C657.06 198.261 656.975 199.413 656.804 200.608C656.633 201.803 656.42 203.04 656.164 204.32C655.14 209.269 653.135 213.621 650.148 217.376C647.247 221.131 643.023 224.075 637.476 226.208C631.929 228.256 624.676 229.28 615.716 229.28ZM685.591 229.28C680.044 229.28 674.882 228.853 670.103 228C665.324 227.061 661.399 225.781 658.327 224.16L662.551 204.32C666.05 206.112 670.018 207.563 674.455 208.672C678.892 209.781 683.159 210.336 687.255 210.336C691.522 210.336 694.807 209.995 697.111 209.312C699.415 208.544 700.866 206.88 701.463 204.32C701.548 203.979 701.591 203.552 701.591 203.04C701.591 200.907 700.268 199.328 697.623 198.304C694.978 197.28 691.052 195.872 685.847 194.08C680.044 192.032 675.65 189.557 672.663 186.656C669.676 183.669 668.183 179.829 668.183 175.136C668.183 174.197 668.226 173.259 668.311 172.32C668.396 171.296 668.567 170.229 668.823 169.12C670.53 161.013 674.54 154.869 680.855 150.688C687.255 146.421 696.471 144.288 708.503 144.288C713.026 144.288 717.591 144.672 722.199 145.44C726.892 146.208 730.604 147.061 733.335 148L729.111 167.968C725.442 166.347 721.858 165.195 718.359 164.512C714.86 163.829 711.49 163.488 708.247 163.488C704.492 163.488 701.207 163.787 698.391 164.384C695.66 164.981 693.996 166.517 693.399 168.992C693.314 169.248 693.271 169.632 693.271 170.144C693.271 171.765 694.338 173.003 696.471 173.856C698.604 174.709 702.146 175.904 707.095 177.44C714.519 179.659 719.682 182.389 722.583 185.632C725.484 188.875 726.935 192.715 726.935 197.152C726.935 198.261 726.85 199.413 726.679 200.608C726.508 201.803 726.295 203.04 726.039 204.32C725.015 209.269 723.01 213.621 720.023 217.376C717.122 221.131 712.898 224.075 707.351 226.208C701.804 228.256 694.551 229.28 685.591 229.28Z" fill="#FFF9F1"/>
</g>
<defs>
<filter id="filter0_d_32_140" x="0.592041" y="0.288025" width="772.743" height="272.992" filterUnits="userSpaceOnUse" color-interpolation-filters="sRGB">
<feFlood flood-opacity="0" result="BackgroundImageFix"/>
<feColorMatrix in="SourceAlpha" type="matrix" values="0 0 0 0 0 0 0 0 0 0 0 0 0 0 0 0 0 0 127 0" result="hardAlpha"/>
<feOffset dy="4"/>
<feGaussianBlur stdDeviation="20"/>
<feComposite in2="hardAlpha" operator="out"/>
<feColorMatrix type="matrix" values="0 0 0 0 0 0 0 0 0 0 0 0 0 0 0 0 0 0 0.25 0"/>
<feBlend mode="normal" in2="BackgroundImageFix" result="effect1_dropShadow_32_140"/>
<feBlend mode="normal" in="SourceGraphic" in2="effect1_dropShadow_32_140" result="shape"/>
</filter>
</defs>
</svg>
