<svg width="75" height="70" viewBox="0 0 75 70" fill="none" xmlns="http://www.w3.org/2000/svg">
<path d="M58.7823 3.00001H40.9177C40.3623 2.99962 39.8294 3.2087 39.4354 3.58154L3.72072 37.6015C2.9389 38.35 2.5 39.3631 2.5 40.4191C2.5 41.4752 2.9389 42.4883 3.72072 43.2368L20.7235 59.4368C21.5095 60.1818 22.573 60.6 23.6816 60.6C24.7902 60.6 25.8538 60.1818 26.6397 59.4368L62.3441 25.4307C62.7355 25.0553 62.9549 24.5475 62.9545 24.0184V6.98769C62.9572 6.46435 62.8512 5.94568 62.6426 5.46153C62.4341 4.97738 62.1271 4.53732 61.7393 4.16668C61.3515 3.79604 60.8906 3.50215 60.3831 3.30192C59.8756 3.1017 59.3315 2.99909 58.7823 3.00001V3.00001Z" stroke="#EADD46" stroke-width="5" stroke-linecap="round" stroke-linejoin="round"/>
<path d="M51.8181 19C50.8742 19 49.9514 18.7185 49.1666 18.1911C48.3817 17.6636 47.77 16.914 47.4087 16.0369C47.0475 15.1598 46.953 14.1947 47.1371 13.2636C47.3213 12.3325 47.7758 11.4772 48.4433 10.8059C49.1108 10.1346 49.9612 9.67747 50.887 9.49226C51.8128 9.30705 52.7725 9.4021 53.6446 9.7654C54.5167 10.1287 55.2621 10.7439 55.7865 11.5333C56.311 12.3226 56.5909 13.2507 56.5909 14.2C56.5909 15.4731 56.088 16.694 55.193 17.5941C54.2979 18.4943 53.0839 19 51.8181 19Z" fill="#EADD46"/>
<path d="M34.3181 67L71.9254 29.272C72.1124 29.0828 72.2595 28.8579 72.3582 28.6105C72.4568 28.3631 72.5049 28.0984 72.4995 27.832V9.40002" stroke="#EADD46" stroke-width="5" stroke-linecap="round" stroke-linejoin="round"/>
</svg>
