<svg width="72" height="53" viewBox="0 0 72 53" fill="none" xmlns="http://www.w3.org/2000/svg">
<path d="M7.712 21V13.416L0.32 0.391998H5.696L10.304 8.936L14.912 0.391998H20.288L12.896 13.416V21H7.712ZM26.1298 21.32C23.2071 21.32 21.0524 20.648 19.6658 19.304C18.2791 17.9387 17.5858 15.976 17.5858 13.416C17.5858 10.8773 18.2791 8.92533 19.6658 7.56C21.0738 6.19467 23.2284 5.512 26.1298 5.512C29.0524 5.512 31.2071 6.19467 32.5938 7.56C34.0018 8.92533 34.7058 10.8773 34.7058 13.416C34.7058 15.976 34.0124 17.9387 32.6258 19.304C31.2391 20.648 29.0738 21.32 26.1298 21.32ZM26.1298 17.288C27.3244 17.288 28.1778 16.9893 28.6898 16.392C29.2018 15.7947 29.4578 14.8027 29.4578 13.416C29.4578 12.0293 29.2018 11.0373 28.6898 10.44C28.1778 9.84267 27.3244 9.544 26.1298 9.544C24.9564 9.544 24.1138 9.84267 23.6018 10.44C23.0898 11.0373 22.8338 12.0293 22.8338 13.416C22.8338 14.8027 23.0898 15.7947 23.6018 16.392C24.1138 16.9893 24.9564 17.288 26.1298 17.288ZM42.5355 21.32C40.7435 21.32 39.3462 20.8187 38.3435 19.816C37.3408 18.792 36.8395 17.3093 36.8395 15.368V5.832H41.9915V15.08C41.9915 15.9333 42.1942 16.5627 42.5995 16.968C43.0262 17.352 43.6555 17.544 44.4875 17.544C45.1062 17.544 45.6928 17.416 46.2475 17.16C46.8022 16.904 47.2608 16.584 47.6235 16.2V5.832H52.7755V21H47.9755L47.8155 19.72C47.1968 20.1893 46.4502 20.5733 45.5755 20.872C44.7008 21.1707 43.6875 21.32 42.5355 21.32ZM56.0383 21V5.832H60.9343L61.0943 7.24C61.7556 6.83467 62.5769 6.472 63.5583 6.152C64.5396 5.81067 65.5209 5.59733 66.5023 5.512V9.384C65.9476 9.448 65.3289 9.55467 64.6463 9.704C63.9849 9.832 63.3449 9.992 62.7263 10.184C62.1289 10.376 61.6169 10.5787 61.1903 10.792V21H56.0383Z" fill="#EADD46"/>
<path d="M1.632 47V26.392H6.784V43.032H16.512V47H1.632ZM26.2548 47.32C23.3321 47.32 21.1774 46.648 19.7908 45.304C18.4041 43.9387 17.7108 41.976 17.7108 39.416C17.7108 36.8773 18.4041 34.9253 19.7908 33.56C21.1988 32.1947 23.3534 31.512 26.2548 31.512C29.1774 31.512 31.3321 32.1947 32.7188 33.56C34.1268 34.9253 34.8308 36.8773 34.8308 39.416C34.8308 41.976 34.1374 43.9387 32.7508 45.304C31.3641 46.648 29.1988 47.32 26.2548 47.32ZM26.2548 43.288C27.4494 43.288 28.3028 42.9893 28.8148 42.392C29.3268 41.7947 29.5828 40.8027 29.5828 39.416C29.5828 38.0293 29.3268 37.0373 28.8148 36.44C28.3028 35.8427 27.4494 35.544 26.2548 35.544C25.0814 35.544 24.2388 35.8427 23.7268 36.44C23.2148 37.0373 22.9588 38.0293 22.9588 39.416C22.9588 40.8027 23.2148 41.7947 23.7268 42.392C24.2388 42.9893 25.0814 43.288 26.2548 43.288ZM43.9725 52.632C43.2258 52.632 42.4365 52.6 41.6045 52.536C40.7725 52.472 39.9832 52.376 39.2365 52.248C38.4898 52.12 37.8498 51.9707 37.3165 51.8V48.28C38.1698 48.5573 39.1938 48.7707 40.3885 48.92C41.5832 49.0693 42.6818 49.144 43.6845 49.144C44.9858 49.144 45.9565 49.0693 46.5965 48.92C47.2578 48.792 47.5885 48.5573 47.5885 48.216C47.5885 47.9173 47.4605 47.7147 47.2045 47.608C46.9485 47.5013 46.4472 47.448 45.7005 47.448H41.5085C40.1432 47.448 39.0765 47.2027 38.3085 46.712C37.5618 46.2213 37.1885 45.5067 37.1885 44.568C37.1885 43.928 37.3805 43.32 37.7645 42.744C38.1698 42.168 38.7565 41.7413 39.5245 41.464C38.6498 41.016 37.9885 40.4507 37.5405 39.768C37.0925 39.0853 36.8685 38.2213 36.8685 37.176C36.8685 35.2133 37.4978 33.784 38.7565 32.888C40.0365 31.9707 41.9032 31.512 44.3565 31.512C44.8685 31.512 45.4338 31.5547 46.0525 31.64C46.6925 31.704 47.1618 31.768 47.4605 31.832H53.2845L53.1565 35.032H50.9485C51.4818 35.5653 51.7485 36.3547 51.7485 37.4C51.7485 38.872 51.2685 40.056 50.3085 40.952C49.3698 41.848 47.9405 42.296 46.0205 42.296C45.7005 42.296 45.3805 42.2853 45.0605 42.264C44.7618 42.2213 44.4632 42.1893 44.1645 42.168C43.6098 42.232 43.1298 42.3493 42.7245 42.52C42.3405 42.6907 42.1485 42.936 42.1485 43.256C42.1485 43.512 42.2445 43.6827 42.4365 43.768C42.6498 43.8533 42.9592 43.896 43.3645 43.896H47.2365C48.7938 43.896 49.9992 44.2587 50.8525 44.984C51.7272 45.688 52.1645 46.7227 52.1645 48.088C52.1645 51.1173 49.4338 52.632 43.9725 52.632ZM44.3885 39.448C45.5192 39.448 46.2978 39.256 46.7245 38.872C47.1512 38.488 47.3645 37.848 47.3645 36.952C47.3645 36.056 47.1405 35.4053 46.6925 35C46.2658 34.5947 45.4978 34.392 44.3885 34.392C43.3432 34.392 42.5858 34.5947 42.1165 35C41.6685 35.384 41.4445 36.0347 41.4445 36.952C41.4445 37.8053 41.6578 38.4347 42.0845 38.84C42.5112 39.2453 43.2792 39.448 44.3885 39.448ZM63.3798 47.32C60.4571 47.32 58.3024 46.648 56.9158 45.304C55.5291 43.9387 54.8358 41.976 54.8358 39.416C54.8358 36.8773 55.5291 34.9253 56.9158 33.56C58.3238 32.1947 60.4784 31.512 63.3798 31.512C66.3024 31.512 68.4571 32.1947 69.8438 33.56C71.2518 34.9253 71.9558 36.8773 71.9558 39.416C71.9558 41.976 71.2624 43.9387 69.8758 45.304C68.4891 46.648 66.3238 47.32 63.3798 47.32ZM63.3798 43.288C64.5744 43.288 65.4278 42.9893 65.9398 42.392C66.4518 41.7947 66.7078 40.8027 66.7078 39.416C66.7078 38.0293 66.4518 37.0373 65.9398 36.44C65.4278 35.8427 64.5744 35.544 63.3798 35.544C62.2064 35.544 61.3638 35.8427 60.8518 36.44C60.3398 37.0373 60.0838 38.0293 60.0838 39.416C60.0838 40.8027 60.3398 41.7947 60.8518 42.392C61.3638 42.9893 62.2064 43.288 63.3798 43.288Z" fill="#FFF9F1"/>
</svg>
