<svg width="15" height="16" viewBox="0 0 15 16" fill="none" xmlns="http://www.w3.org/2000/svg">
<path d="M7.08333 5.6C7.08333 5.06957 7.30283 4.56086 7.69353 4.18579C8.08423 3.81071 8.61413 3.6 9.16667 3.6C10.0833 3.6 10.8583 4.168 11.1417 4.952C11.2083 5.16 11.25 5.376 11.25 5.6C11.25 5.86264 11.1961 6.12272 11.0914 6.36537C10.9867 6.60802 10.8333 6.8285 10.6398 7.01421C10.4464 7.19993 10.2167 7.34725 9.96392 7.44776C9.71116 7.54827 9.44025 7.6 9.16667 7.6C8.25833 7.6 7.5 7.048 7.2 6.272C7.125 6.064 7.08333 5.832 7.08333 5.6ZM1.66667 5.6C1.66667 9.2 5.9 14.128 6.66667 15.048L5.83333 16C5.83333 16 0 9.8 0 5.6C0 3.064 1.75833 0.92 4.16667 0.232C2.63333 1.552 1.66667 3.464 1.66667 5.6ZM9.16667 0C12.3833 0 15 2.504 15 5.6C15 9.8 9.16667 16 9.16667 16C9.16667 16 3.33333 9.8 3.33333 5.6C3.33333 2.504 5.95 0 9.16667 0ZM9.16667 1.6C6.86667 1.6 5 3.392 5 5.6C5 6.4 5 8 9.16667 13.368C13.3333 8 13.3333 6.4 13.3333 5.6C13.3333 3.392 11.4667 1.6 9.16667 1.6Z" fill="#EADD46"/>
</svg>
