<svg width="57" height="64" viewBox="0 0 57 64" fill="none" xmlns="http://www.w3.org/2000/svg">
<path d="M26.9167 22.4C26.9167 20.2783 27.7507 18.2434 29.2354 16.7431C30.7201 15.2429 32.7337 14.4 34.8333 14.4C38.3167 14.4 41.2617 16.672 42.3383 19.808C42.5917 20.64 42.75 21.504 42.75 22.4C42.75 23.4506 42.5452 24.4909 42.1474 25.4615C41.7495 26.4321 41.1664 27.314 40.4313 28.0569C39.6961 28.7997 38.8234 29.389 37.8629 29.791C36.9024 30.1931 35.873 30.4 34.8333 30.4C31.3817 30.4 28.5 28.192 27.36 25.088C27.075 24.256 26.9167 23.328 26.9167 22.4ZM6.33333 22.4C6.33333 36.8 22.42 56.512 25.3333 60.192L22.1667 64C22.1667 64 0 39.2 0 22.4C0 12.256 6.68167 3.68 15.8333 0.928C10.0067 6.208 6.33333 13.856 6.33333 22.4ZM34.8333 0C47.0567 0 57 10.016 57 22.4C57 39.2 34.8333 64 34.8333 64C34.8333 64 12.6667 39.2 12.6667 22.4C12.6667 10.016 22.61 0 34.8333 0ZM34.8333 6.4C26.0933 6.4 19 13.568 19 22.4C19 25.6 19 32 34.8333 53.472C50.6667 32 50.6667 25.6 50.6667 22.4C50.6667 13.568 43.5733 6.4 34.8333 6.4Z" fill="#EADD46"/>
</svg>
