<svg width="65" height="64" viewBox="0 0 65 64" fill="none" xmlns="http://www.w3.org/2000/svg">
<path d="M36.4458 64L31.1979 51.8593C36.2527 50.0208 40.9855 47.5483 45.3641 44.6637L36.4458 64M12.3311 33.2838L0 28.1169L19.6395 19.3363C16.7097 23.6474 14.1984 28.3071 12.3311 33.2838ZM56.0532 6.33977C56.9547 6.33977 57.7596 6.33977 58.4357 6.49827C58.983 10.9044 58.3713 19.9703 47.811 30.3675C42.3377 35.788 35.8019 39.9406 28.4612 42.6984L21.5391 36.0416C24.5011 28.7192 28.7188 22.2843 34.1599 16.9272C43.046 8.17831 50.9662 6.33977 56.0532 6.33977ZM56.0532 0C49.6784 0 40.0196 2.18722 29.5881 12.4577C22.5372 19.3997 18.3195 27.0391 15.5828 33.7276C14.6814 36.105 15.2931 38.7043 17.0639 40.4794L23.9216 47.1996C25.1451 48.4042 26.787 49.1332 28.4934 49.1332C29.2339 49.1332 30.0066 48.943 30.7471 48.6578C38.8559 45.6137 46.2184 40.9144 52.3506 34.8687C70.5736 16.9272 63.748 1.23626 63.748 1.23626C63.748 1.23626 60.8182 0 56.0532 0ZM40.9855 23.6474C38.4742 21.1748 38.4742 17.1491 40.9855 14.6766C43.4968 12.2041 47.5856 12.2041 50.0969 14.6766C52.576 17.1491 52.6082 21.1748 50.0969 23.6474C47.5856 26.1199 43.4968 26.1199 40.9855 23.6474M22.7626 46.0584L18.2229 41.5889L22.7626 46.0584ZM14.2628 63.3977L25.9821 51.8593C24.8875 51.574 23.825 51.0986 22.8591 50.4329L9.72318 63.3977H14.2628ZM0.611724 63.3977H5.15136L20.5088 48.3091L15.937 43.8395L0.611724 58.9282V63.3977ZM0.611724 54.4269L13.7799 41.4938C13.1038 40.5428 12.6208 39.5285 12.3311 38.419L0.611724 49.9574V54.4269Z" fill="#EADD46"/>
</svg>
