<svg width="61" height="64" viewBox="0 0 61 64" fill="none" xmlns="http://www.w3.org/2000/svg">
<path d="M23.4267 17.843C25.775 17.843 27.6707 19.7391 27.6707 22.088C27.6707 24.4369 25.775 26.333 23.4267 26.333C21.0784 26.333 19.1827 24.4369 19.1827 22.088C19.1827 19.7391 21.0784 17.843 23.4267 17.843ZM37.5733 37.6529C39.9216 37.6529 41.8172 39.549 41.8172 41.8979C41.8172 44.2467 39.9216 46.1428 37.5733 46.1428C35.2249 46.1428 33.3293 44.2467 33.3293 41.8979C33.3293 39.549 35.2249 37.6529 37.5733 37.6529ZM20.3428 46.1428L16.3534 42.1526L40.6572 17.843L44.6466 21.8333L20.3428 46.1428ZM49.3149 6.09861L51.0408 17.0223L60.9717 22.088L55.9638 31.9929L61 41.8979L50.9842 46.9635L49.2583 57.8872L38.2523 56.161L30.4151 64L22.5496 56.0478L11.6285 57.8589L9.8743 46.8503L0 41.813L5.03618 31.908L0.0282931 22.088L9.95918 16.9657L11.6851 6.15521L22.6345 7.93809L30.5 0L38.3089 7.8249L49.3149 6.09861ZM53.4174 24.5501L46.0612 20.673L44.6466 12.4944L36.4416 13.683L30.5 7.93809L24.5584 13.683L16.3534 12.4944L14.9388 20.673L7.58256 24.5501L11.2607 31.9929L7.58256 39.4358L14.9388 43.3128L16.3534 51.4915L24.5584 50.3029L30.5 56.0478L36.4416 50.3029L44.6466 51.4915L46.0612 43.3128L53.4174 39.4358L49.7393 31.9929L53.4174 24.5501V24.5501Z" fill="#EADD46"/>
</svg>
