<svg width="20" height="19" viewBox="0 0 20 19" fill="none" xmlns="http://www.w3.org/2000/svg">
<path fill-rule="evenodd" clip-rule="evenodd" d="M5.87727 0.057C6.94364 0.0103636 7.28364 0 10 0C12.7164 0 13.0564 0.0112273 14.1218 0.057C15.1873 0.102773 15.9145 0.264273 16.5509 0.498318C17.2173 0.737545 17.8218 1.1115 18.3218 1.59514C18.8309 2.06927 19.2236 2.64273 19.4745 3.27664C19.7218 3.88118 19.8909 4.57209 19.94 5.58255C19.9891 6.59732 20 6.92032 20 9.5C20 12.0805 19.9882 12.4035 19.94 13.4166C19.8918 14.427 19.7218 15.118 19.4745 15.7225C19.2236 16.3565 18.8303 16.9309 18.3218 17.4057C17.8218 17.8894 17.2173 18.2625 16.5509 18.5008C15.9145 18.7357 15.1873 18.8964 14.1236 18.943C13.0564 18.9896 12.7164 19 10 19C7.28364 19 6.94364 18.9888 5.87727 18.943C4.81364 18.8972 4.08636 18.7357 3.45 18.5008C2.78266 18.2624 2.17802 17.8887 1.67818 17.4057C1.16944 16.9313 0.775741 16.3572 0.524545 15.7234C0.278182 15.1188 0.109091 14.4279 0.06 13.4175C0.0109091 12.4027 0 12.0797 0 9.5C0 6.91945 0.0118182 6.59645 0.06 5.58427C0.108182 4.57209 0.278182 3.88118 0.524545 3.27664C0.776112 2.6428 1.17011 2.06868 1.67909 1.59427C2.17822 1.11107 2.78225 0.737065 3.44909 0.498318C4.08545 0.264273 4.81273 0.103636 5.87636 0.057H5.87727ZM14.0409 1.767C12.9864 1.72123 12.67 1.71173 10 1.71173C7.33 1.71173 7.01364 1.72123 5.95909 1.767C4.98364 1.80932 4.45455 1.96391 4.10182 2.09432C3.63545 2.26705 3.30182 2.47173 2.95182 2.80423C2.62004 3.11086 2.36471 3.48415 2.20455 3.89673C2.06727 4.23182 1.90455 4.73445 1.86 5.66114C1.81182 6.66295 1.80182 6.9635 1.80182 9.5C1.80182 12.0365 1.81182 12.337 1.86 13.3389C1.90455 14.2655 2.06727 14.7682 2.20455 15.1033C2.36455 15.5152 2.62 15.8892 2.95182 16.1958C3.27455 16.511 3.66818 16.7537 4.10182 16.9057C4.45455 17.0361 4.98364 17.1907 5.95909 17.233C7.01364 17.2788 7.32909 17.2883 10 17.2883C12.6709 17.2883 12.9864 17.2788 14.0409 17.233C15.0164 17.1907 15.5455 17.0361 15.8982 16.9057C16.3645 16.733 16.6982 16.5283 17.0482 16.1958C17.38 15.8892 17.6355 15.5152 17.7955 15.1033C17.9327 14.7682 18.0955 14.2655 18.14 13.3389C18.1882 12.337 18.1982 12.0365 18.1982 9.5C18.1982 6.9635 18.1882 6.66295 18.14 5.66114C18.0955 4.73445 17.9327 4.23182 17.7955 3.89673C17.6136 3.45368 17.3982 3.13673 17.0482 2.80423C16.7254 2.48906 16.3325 2.2465 15.8982 2.09432C15.5455 1.96391 15.0164 1.80932 14.0409 1.767ZM8.72273 12.4286C9.43605 12.7107 10.2303 12.7488 10.9699 12.5363C11.7095 12.3239 12.3485 11.8741 12.7778 11.2638C13.2071 10.6534 13.4001 9.92048 13.3237 9.19005C13.2473 8.45961 12.9064 7.77702 12.3591 7.25886C12.0102 6.92764 11.5884 6.67402 11.1239 6.51626C10.6595 6.35851 10.164 6.30054 9.67318 6.34653C9.18233 6.39252 8.70832 6.54133 8.28528 6.78225C7.86223 7.02316 7.50068 7.35019 7.22664 7.73978C6.9526 8.12937 6.7729 8.57184 6.70047 9.03533C6.62804 9.49882 6.66468 9.9718 6.80776 10.4202C6.95084 10.8686 7.1968 11.2813 7.52793 11.6286C7.85906 11.9759 8.26711 12.2491 8.72273 12.4286ZM6.36545 6.04718C6.84275 5.59375 7.40938 5.23407 8.033 4.98868C8.65662 4.74328 9.325 4.61698 10 4.61698C10.675 4.61698 11.3434 4.74328 11.967 4.98868C12.5906 5.23407 13.1573 5.59375 13.6345 6.04718C14.1118 6.50061 14.4905 7.03891 14.7488 7.63135C15.0071 8.22378 15.14 8.85875 15.14 9.5C15.14 10.1412 15.0071 10.7762 14.7488 11.3687C14.4905 11.9611 14.1118 12.4994 13.6345 12.9528C12.6706 13.8686 11.3632 14.383 10 14.383C8.63678 14.383 7.3294 13.8686 6.36545 12.9528C5.40151 12.0371 4.85998 10.7951 4.85998 9.5C4.85998 8.20494 5.40151 6.96293 6.36545 6.04718ZM16.28 5.34418C16.3983 5.23819 16.493 5.11072 16.5585 4.96934C16.624 4.82796 16.6589 4.67553 16.6613 4.52108C16.6637 4.36662 16.6334 4.21329 16.5723 4.07015C16.5111 3.92702 16.4204 3.79699 16.3054 3.68776C16.1904 3.57854 16.0536 3.49234 15.9029 3.43427C15.7522 3.37619 15.5908 3.34743 15.4282 3.34969C15.2657 3.35194 15.1052 3.38516 14.9564 3.44737C14.8076 3.50959 14.6734 3.59955 14.5618 3.71191C14.3448 3.93043 14.226 4.2207 14.2306 4.52108C14.2352 4.82146 14.3629 5.1083 14.5865 5.32073C14.8101 5.53315 15.1121 5.65442 15.4282 5.6588C15.7444 5.66318 16.05 5.55032 16.28 5.34418Z" fill="#FFF9F1"/>
</svg>
