<svg width="20" height="19" viewBox="0 0 20 19" fill="none" xmlns="http://www.w3.org/2000/svg">
<path d="M10 0C4.48 0 0 4.256 0 9.5C0 14.744 4.48 19 10 19C15.52 19 20 14.744 20 9.5C20 4.256 15.52 0 10 0ZM14.64 6.46C14.49 7.961 13.84 11.609 13.51 13.2905C13.37 14.003 13.09 14.2405 12.83 14.269C12.25 14.3165 11.81 13.908 11.25 13.5565C10.37 13.0055 9.87 12.6635 9.02 12.1315C8.03 11.514 8.67 11.172 9.24 10.621C9.39 10.4785 11.95 8.265 12 8.0655C12.0069 8.03528 12.006 8.00391 11.9973 7.97411C11.9886 7.94431 11.9724 7.91698 11.95 7.8945C11.89 7.847 11.81 7.866 11.74 7.8755C11.65 7.8945 10.25 8.778 7.52 10.526C7.12 10.7825 6.76 10.9155 6.44 10.906C6.08 10.8965 5.4 10.716 4.89 10.5545C4.26 10.3645 3.77 10.26 3.81 9.9275C3.83 9.7565 4.08 9.5855 4.55 9.405C7.47 8.1985 9.41 7.4005 10.38 7.0205C13.16 5.9185 13.73 5.7285 14.11 5.7285C14.19 5.7285 14.38 5.7475 14.5 5.8425C14.6 5.9185 14.63 6.023 14.64 6.099C14.63 6.156 14.65 6.327 14.64 6.46Z" fill="#FFF9F1"/>
</svg>
