<svg width="71" height="71" viewBox="0 0 71 71" fill="none" xmlns="http://www.w3.org/2000/svg">
<circle cx="35.5" cy="35.5" r="35.5" fill="url(#paint0_linear_208_3)"/>
<mask id="mask0_208_3" style="mask-type:alpha" maskUnits="userSpaceOnUse" x="15" y="13" width="40" height="46">
<path d="M39.615 34.5701C39.8182 33.7676 39.8095 32.9261 39.5897 32.128C39.3699 31.3298 38.9467 30.6025 38.3613 30.0171C37.7759 29.4318 37.0486 29.0085 36.2505 28.7887C35.4523 28.5689 34.6108 28.5602 33.8083 28.7634C32.14 29.1751 30.775 30.5401 30.3633 32.2084C30.1601 33.0109 30.1688 33.8524 30.3886 34.6505C30.6084 35.4487 31.0317 36.176 31.617 36.7614C32.2024 37.3467 32.9297 37.77 33.7279 37.9898C34.526 38.2096 35.3675 38.2183 36.17 38.0151C37.86 37.6034 39.225 36.2384 39.615 34.5701Z" stroke="black" stroke-width="1.5" stroke-linecap="round" stroke-linejoin="round"/>
<path d="M48.0217 47.245C49.9251 45.472 51.4424 43.3255 52.4788 40.9396C53.5152 38.5537 54.0484 35.9797 54.045 33.3784C54.045 30.8773 53.5524 28.4008 52.5953 26.0902C51.6382 23.7795 50.2354 21.68 48.4669 19.9115C46.6984 18.143 44.5989 16.7402 42.2882 15.7831C39.9776 14.826 37.501 14.3334 35 14.3334C32.499 14.3334 30.0225 14.826 27.7118 15.7831C25.4012 16.7402 23.3017 18.143 21.5332 19.9115C19.7647 21.68 18.3618 23.7795 17.4047 26.0902C16.4476 28.4008 15.955 30.8773 15.955 33.3784C15.955 38.8817 18.295 43.8434 22.0433 47.31" stroke="black" stroke-width="1.5" stroke-linecap="round" stroke-linejoin="round"/>
<path d="M26.3333 41.5251C24.34 39.4017 23.105 36.5417 23.105 33.3784C23.105 26.8134 28.435 21.4834 35 21.4834C41.565 21.4834 46.895 26.8134 46.895 33.3784C46.895 36.5417 45.66 39.3801 43.6667 41.5251M31.3167 46.0967L28.1967 49.9751C25.7267 53.0734 27.915 57.6451 31.88 57.6451H38.0983C42.0633 57.6451 44.2733 53.0517 41.7817 49.9751L38.6617 46.0967C36.7983 43.7351 33.2017 43.7351 31.3167 46.0967Z" stroke="black" stroke-width="1.5" stroke-linecap="round" stroke-linejoin="round"/>
</mask>
<g mask="url(#mask0_208_3)">
<rect x="3" y="6" width="64" height="62" fill="white"/>
</g>
<defs>
<linearGradient id="paint0_linear_208_3" x1="35.5" y1="0" x2="35.5" y2="71" gradientUnits="userSpaceOnUse">
<stop stop-color="#00F0FF"/>
<stop offset="1" stop-color="#00A3FF"/>
</linearGradient>
</defs>
</svg>
