<svg width="39" height="40" viewBox="0 0 39 40" fill="none" xmlns="http://www.w3.org/2000/svg">
<path d="M0.999999 20C0.999999 9.48257 9.30645 0.999999 19.5 0.999999C29.6936 0.999999 38 9.48257 38 20C38 30.5174 29.6936 39 19.5 39C9.30645 39 0.999999 30.5174 0.999999 20Z" stroke="white" stroke-width="2"/>
<path d="M11.9393 19.9393C11.3536 20.5251 11.3536 21.4749 11.9393 22.0607L21.4853 31.6066C22.0711 32.1924 23.0208 32.1924 23.6066 31.6066C24.1924 31.0208 24.1924 30.0711 23.6066 29.4853L15.1213 21L23.6066 12.5147C24.1924 11.9289 24.1924 10.9792 23.6066 10.3934C23.0208 9.80761 22.0711 9.80761 21.4853 10.3934L11.9393 19.9393ZM14 19.5H13V22.5H14V19.5Z" fill="white"/>
</svg>
