<svg width="39" height="40" viewBox="0 0 39 40" fill="none" xmlns="http://www.w3.org/2000/svg">
<path d="M26.0607 22.0607C26.6464 21.4749 26.6464 20.5251 26.0607 19.9393L16.5147 10.3934C15.9289 9.80761 14.9792 9.80761 14.3934 10.3934C13.8076 10.9792 13.8076 11.9289 14.3934 12.5147L22.8787 21L14.3934 29.4853C13.8076 30.0711 13.8076 31.0208 14.3934 31.6066C14.9792 32.1924 15.9289 32.1924 16.5147 31.6066L26.0607 22.0607ZM24 22.5H25V19.5H24V22.5Z" fill="white"/>
<path d="M38 20C38 30.5174 29.6936 39 19.5 39C9.30645 39 1 30.5174 1 20C1 9.48257 9.30645 1 19.5 1C29.6936 1 38 9.48257 38 20Z" stroke="white" stroke-width="2"/>
</svg>
