<svg width="71" height="71" viewBox="0 0 71 71" fill="none" xmlns="http://www.w3.org/2000/svg">
<circle cx="35.5" cy="35.5" r="35.5" fill="url(#paint0_linear_208_2)"/>
<mask id="mask0_208_2" style="mask-type:alpha" maskUnits="userSpaceOnUse" x="14" y="14" width="41" height="41">
<path d="M46.25 34.5C46.25 33.4613 46.6626 32.465 47.3972 31.7305C48.1317 30.996 49.1279 30.5834 50.1667 30.5834C51.2054 30.5834 52.2016 30.996 52.9362 31.7305C53.6707 32.465 54.0833 33.4613 54.0833 34.5C54.0833 35.5388 53.6707 36.535 52.9362 37.2695C52.2016 38.004 51.2054 38.4167 50.1667 38.4167C49.1279 38.4167 48.1317 38.004 47.3972 37.2695C46.6626 36.535 46.25 35.5388 46.25 34.5ZM46.25 34.5H22.75M22.75 34.5C22.75 35.5388 22.3373 36.535 21.6028 37.2695C20.8683 38.004 19.8721 38.4167 18.8333 38.4167C17.7946 38.4167 16.7983 38.004 16.0638 37.2695C15.3293 36.535 14.9167 35.5388 14.9167 34.5C14.9167 33.4613 15.3293 32.465 16.0638 31.7305C16.7983 30.996 17.7946 30.5834 18.8333 30.5834C19.8721 30.5834 20.8683 30.996 21.6028 31.7305C22.3373 32.465 22.75 33.4613 22.75 34.5ZM50.1667 22.75C51.2054 22.75 52.2016 22.3374 52.9362 21.6029C53.6707 20.8683 54.0833 19.8721 54.0833 18.8334C54.0833 17.7946 53.6707 16.7984 52.9362 16.0639C52.2016 15.3293 51.2054 14.9167 50.1667 14.9167C49.1279 14.9167 48.1317 15.3293 47.3972 16.0639C46.6626 16.7984 46.25 17.7946 46.25 18.8334C46.25 19.8721 46.6626 20.8683 47.3972 21.6029C48.1317 22.3374 49.1279 22.75 50.1667 22.75ZM50.1667 54.0834C51.2054 54.0834 52.2016 53.6707 52.9362 52.9362C53.6707 52.2017 54.0833 51.2055 54.0833 50.1667C54.0833 49.1279 53.6707 48.1317 52.9362 47.3972C52.2016 46.6627 51.2054 46.25 50.1667 46.25C49.1279 46.25 48.1317 46.6627 47.3972 47.3972C46.6626 48.1317 46.25 49.1279 46.25 50.1667C46.25 51.2055 46.6626 52.2017 47.3972 52.9362C48.1317 53.6707 49.1279 54.0834 50.1667 54.0834Z" stroke="black" stroke-width="1.5" stroke-linecap="round" stroke-linejoin="round"/>
<path d="M46.25 18.8334H38.4167C34.5 18.8334 32.5417 20.7917 32.5417 24.7084V44.2917C32.5417 48.2084 34.5 50.1667 38.4167 50.1667H46.25" stroke="black" stroke-width="1.5" stroke-linecap="round" stroke-linejoin="round"/>
</mask>
<g mask="url(#mask0_208_2)">
<rect x="4" y="8" width="58" height="50" fill="white"/>
</g>
<defs>
<linearGradient id="paint0_linear_208_2" x1="35.5" y1="0" x2="35.5" y2="71" gradientUnits="userSpaceOnUse">
<stop stop-color="#FFE600"/>
<stop offset="1" stop-color="#FFB800"/>
</linearGradient>
</defs>
</svg>
