<svg width="28" height="28" viewBox="0 0 28 28" fill="none" xmlns="http://www.w3.org/2000/svg">
<mask id="mask0_17_44" style="mask-type:alpha" maskUnits="userSpaceOnUse" x="1" y="1" width="26" height="26">
<path d="M21.5484 19.635L22.0034 23.3217C22.12 24.29 21.0817 24.9667 20.2534 24.465L15.365 21.56C14.8284 21.56 14.3034 21.525 13.79 21.455C14.6743 20.4299 15.1627 19.1222 15.1667 17.7683C15.1667 14.455 12.2967 11.7717 8.75002 11.7717C7.39669 11.7717 6.14835 12.1567 5.11002 12.8333C5.07502 12.5417 5.06335 12.25 5.06335 11.9467C5.06335 6.63833 9.67169 2.33333 15.365 2.33333C21.0584 2.33333 25.6667 6.63833 25.6667 11.9467C25.6667 15.0967 24.045 17.885 21.5484 19.635Z" stroke="black" stroke-width="1.5" stroke-linecap="round" stroke-linejoin="round"/>
<path d="M15.1667 17.7683C15.1667 19.1567 14.6534 20.44 13.79 21.455C12.635 22.855 10.8034 23.7533 8.75004 23.7533L5.70504 25.5617C5.19171 25.8767 4.53837 25.445 4.60837 24.85L4.90004 22.5517C3.33671 21.4667 2.33337 19.7283 2.33337 17.7683C2.33337 15.715 3.43004 13.9067 5.11004 12.8333C6.14837 12.1567 7.39671 11.7717 8.75004 11.7717C12.2967 11.7717 15.1667 14.455 15.1667 17.7683Z" stroke="black" stroke-width="1.5" stroke-linecap="round" stroke-linejoin="round"/>
</mask>
<g mask="url(#mask0_17_44)">
<rect x="-3" y="-3" width="33" height="34" fill="white"/>
</g>
</svg>
